Coordinates
version=1
nRows=6
nColumns=34
inDegrees=yes

Units are S.I. units (second, meters, Newtons, ...)
If the header above contains a line with 'inDegrees', this indicates whether rotational values are in degrees (yes) or radians (no).

endheader
time	pelvis_tilt	pelvis_list	pelvis_rotation	pelvis_tx	pelvis_ty	pelvis_tz	hip_flexion_r	hip_adduction_r	hip_rotation_r	knee_angle_r	ankle_angle_r	subtalar_angle_r	mtp_angle_r	hip_flexion_l	hip_adduction_l	hip_rotation_l	knee_angle_l	ankle_angle_l	subtalar_angle_l	mtp_angle_l	lumbar_extension	lumbar_bending	lumbar_rotation	arm_flex_r	arm_add_r	arm_rot_r	elbow_flex_r	pro_sup_r	arm_flex_l	arm_add_l	arm_rot_l	elbow_flex_l	pro_sup_l
      9.55000000	     -4.56860569	      0.26978569	      3.32621388	      0.74521140	      1.03617264	      0.19565613	     -0.03828371	      2.54141616	    -15.47810776	      2.11964051	      3.14363524	    -13.60404098	      0.00000000	     17.57043533	     -2.95778151	     -9.89275972	     20.66069424	      5.51919234	    -12.14151150	      0.00000000	      2.71776074	     -0.08591977	      2.22944529	     -0.90134154	     -5.51903412	     -2.76963233	     27.73516800	     93.46179656	      0.18286992	     -3.07233514	     -1.99159237	     25.86009332	     87.40031330
      9.56666670	     -4.61133791	      0.28175515	      3.67542336	      0.74421877	      1.03601820	      0.19620384	      0.14444020	      2.57990233	    -15.87805875	      2.55921204	      4.63832126	    -11.80133687	      0.00000000	     16.38371290	     -2.79108957	    -10.31051544	     21.52641686	      5.37428584	    -12.98849620	      0.00000000	      2.96633238	     -0.08344389	      2.10881253	     -1.16386924	     -5.26389465	     -3.70513111	     26.84389293	     93.49179629	      0.24950046	     -3.32045169	     -0.10598883	     26.75455622	     87.55123919
      9.58333330	     -4.68655779	      0.18166347	      4.04447641	      0.74512608	      1.03883420	      0.19673001	      0.24873784	      2.79738879	    -15.59261908	      2.75260537	      4.97411317	    -11.70230182	      0.00000000	     15.10373825	     -2.73112886	    -10.74091880	     22.04423595	      5.63385211	    -13.30910374	      0.00000000	      3.35754021	     -0.00966693	      1.76844697	     -1.57717223	     -5.17894564	     -3.78236842	     26.72080154	     93.50975421	      0.36347348	     -3.23095747	      0.07846121	     26.80324903	     87.54884323
      9.60000000	     -4.24200186	      0.21505137	      4.30755734	      0.74704701	      1.04107346	      0.19759487	     -0.16655787	      2.87320471	    -15.51401929	      3.16881557	      5.75366591	    -10.75034958	      0.00000000	     13.01086143	     -2.59404197	    -11.32358169	     21.89368943	      5.35448103	    -13.38502469	      0.00000000	      2.89938578	     -0.09326624	      1.74265660	     -1.78700974	     -4.97012043	     -4.38934352	     26.02932444	     93.61828998	      0.60168114	     -3.32200221	      1.22268324	     27.21397235	     87.56078933
      9.61666670	     -4.30351339	      0.14318927	      4.56857868	      0.74791032	      1.04157027	      0.19869171	      0.00441677	      3.02442209	    -15.25478445	      3.67614582	      6.16052909	    -10.68440999	      0.00000000	     11.50524695	     -2.57426472	    -11.81391436	     21.51788238	      4.77455717	    -13.25912039	      0.00000000	      3.29649366	     -0.03226620	      1.44191218	     -2.19135349	     -4.87722950	     -4.51319830	     25.78447670	     93.65064109	      0.51198676	     -3.23748922	      1.48612457	     27.29426855	     87.56267558
      9.63333330	     -4.13903031	      0.13680647	      4.62165914	      0.74636219	      1.04153239	      0.20045285	      0.10145619	      3.11093011	    -14.90507393	      4.39956955	      6.69743572	    -10.48056942	      0.00000000	      9.68745848	     -2.56597201	    -12.35798413	     20.61800482	      3.90779440	    -13.08412372	      0.00000000	      3.23214150	     -0.18470757	      1.44479116	     -2.34774111	     -4.61928560	     -4.72064409	     25.19124469	     93.71713962	      0.48975060	     -3.32337732	      1.95024607	     27.55892147	     87.57698814
